<?xml version="1.0" encoding="utf-8"?>
<?xml-stylesheet type="text/xsl" href="rss1.xsl"?>
<rss version="2.0" xmlns:atom="http://www.w3.org/2005/Atom" xmlns:content="http://purl.org/rss/1.0/modules/content/" xmlns:dc="http://purl.org/dc/elements/1.1/" xmlns:media="http://search.yahoo.com/mrss/">
<channel>
 <title>Getty</title>
 <link>http://www.gettyimg.com/</link>
 <atom:link href="http://www.gettyimg.com/" rel="self" type="application/rss+xml" />

 
                <item>
                <title><![CDATA[【Music Videos】Alan Walker &amp; Zak Abel - Endless Summer [4K HEVC 10-bit | PCM]]]></title>
                <link><![CDATA[https://sharemania.us/threads/alan-walker-zak-abel-endless-summer-4k-hevc-10-bit-pcm.224620/]]></link>
                <description><![CDATA[<article>
<blockquote class="messageText SelectQuoteContainer ugc baseHtml">
<b><img src="https://images2.imgbox.com/79/e2/PDTVDxOB_o.jpg" class="bbCodeImage LbImage" alt="[​IMG]" data-url="https://images2.imgbox.com/79/e2/PDTVDxOB_o.jpg" style=""> <br>
<img src="https://images2.imgbox.com/07/e7/MuUcjJ2e_o.jpg" class="bbCodeImage LbImage" alt="[​IMG]" data-url="https://images2.imgbox.com/07/e7/MuUcjJ2e_o.jpg" style=""> <br>
<br>
Genre: <span style="color: #0059b3">Electronic, Pop</span><br>
Style: <span style="color: #0059b3">Dance-pop</span><br>
Year: <span style="color: #0059b3">2023</span><br>
Video Source: <span style="color: #0059b3">YouTube, 2160p</span><br>
Audio Source: <span style="color: #0059b3">Qobuz</span></b><br>
<br>
"<b>Endless Summer</b>" is a song produced by British-Norwegian record producer and DJ Alan Walker incorporating vocals provided by British singer-songwriter Zak Abel. Released on July 14 2023 on the MER Recordings label, the song is described as a euphoric dance-pop tune that perfectly captures the carefree and blissful essence of the season it evokes. <i>“It opens with organic melodies that move into a euphonious chorus consisting of a groovy bassline and understated percussion, complemented by the positive and hopeful message in the chorus”. “Endless Summer” has reportedly already received more than 1.5 million organic impressions on social media platforms even before its official release, “which makes it sure to be on rotation for all the memorable moments with friends and family this summer,” according to the press release.</i><br>
<br>
Walker, from the Norwegian city of Bergen, has more than 115 million followers across his social accounts, 8.7 billion YouTube views, and more than 50 billion audio and video streams.<br>
<br>
Englishman Abel, meanwhile, is one of the most high-profile electronic dance music vocalists, whose hits include “Freedom,” with producer and DJ Kygo, which has been streamed more than 200 million times; “Ten More Days,” with Avicii; “Bad,” with Don Diablo; and “The Power” with Duke Dumont. His new album, “Love Over Fear,” is due for release on Aug. 25 on the UK-based BMG label.<br>
<br>
<i>“Like most people, I’m always looking forward to summertime,”</i> said Walker. <i>“It’s the most exciting and blissful season and it’s the best launchpad for joyful moments with family and friends while I’m on the road.”<br>
“It was these bright moments that inspired me to create a song that captured the buzzing mood into an everlasting summer soundtrack, and Zak Abel’s talent brought it to life in a way only he could do.”</i><br>
<br>
Abel said: <i>“This might be the most euphoric song I’ve ever been a part of. Working with Alan on ‘Endless Summer’ was a great experience, too, so it just makes me wanna jump around and smile, and I’m sure people will react just like me when listening to our track.”</i><br>
<br>
<b>Release Info</b><br>
The video track is downloaded from YouTube (2160p VP9) and converted to HEVC 10-bit.<br>
The PCM track is lossless (Qobuz, CD quality), edited and synced with Adobe Audition.<br>
The timed lyrics are created from scratch. Enable the subtitles to see the lyrics.<br>
<br>
<div class="ToggleTriggerAnchor bbCodeSpoilerContainer">
<button type="button" class="button bbCodeSpoilerButton ToggleTrigger Tooltip JsOnly" data-target="> .SpoilerTarget"><span>Spoiler: <span class="SpoilerTitle">Media Info</span></span></button>
<div class="SpoilerTarget bbCodeSpoilerText">
<div class="bbCodeBlock bbCodeCode">
<div class="type">Code:</div>
<pre>General
Unique ID                      : 127691519965969653946892513083308934080 (0x60107E00786DF121326A4D67C6AC83C0)
Complete name                  : Alan Walker &amp; Zak Abel - Endless Summer.mkv
Format                         : Matroska
Format version                 : Version 4 / Version 2
File size                      : 380 MiB
Duration                       : 3 min 16 s
Overall bit rate               : 16.2 Mb/s
Frame rate                     : 25.000 FPS
Encoded date                   : 2023-07-15 22:31:53 UTC
Writing application            : mkvmerge v76.0 ('Celebration') 64-bit
Writing library                : libebml v1.4.4 + libmatroska v1.7.1

Video
ID                             : 1
Format                         : HEVC
Format/Info                    : High Efficiency Video Coding
Format profile                 : Main 10@L5@Main
Codec ID                       : V_MPEGH/ISO/HEVC
Duration                       : 3 min 16 s
Bit rate                       : 14.8 Mb/s
Width                          : 3 840 pixels
Height                         : 2 160 pixels
Display aspect ratio           : 16:9
Frame rate mode                : Constant
Frame rate                     : 25.000 FPS
Color space                    : YUV
Chroma subsampling             : 4:2:0
Bit depth                      : 10 bits
Bits/(Pixel*Frame)             : 0.071
Stream size                    : 347 MiB (91%)
Writing library                : x265 3.5+1-f0c1022b6:[Windows][GCC 10.2.0][64 bit] 10bit
Encoding settings              : cpuid=1111039 / frame-threads=6 / numa-pools=32 / wpp / no-pmode / no-pme / no-psnr / no-ssim / log-level=2 / input-csp=1 / input-res=3840x2160 / interlace=0 / total-frames=0 / level-idc=0 / high-tier=1 / uhd-bd=0 / ref=4 / no-allow-non-conformance / no-repeat-headers / annexb / no-aud / no-eob / no-eos / no-hrd / info / hash=0 / no-temporal-layers / open-gop / min-keyint=25 / keyint=250 / gop-lookahead=0 / bframes=4 / b-adapt=2 / b-pyramid / bframe-bias=0 / rc-lookahead=25 / lookahead-slices=4 / scenecut=40 / no-hist-scenecut / radl=0 / no-splice / no-intra-refresh / ctu=64 / min-cu-size=8 / rect / no-amp / max-tu-size=32 / tu-inter-depth=1 / tu-intra-depth=1 / limit-tu=0 / rdoq-level=2 / dynamic-rd=0.00 / no-ssim-rd / signhide / no-tskip / nr-intra=0 / nr-inter=0 / no-constrained-intra / strong-intra-smoothing / max-merge=3 / limit-refs=3 / limit-modes / me=3 / subme=3 / merange=57 / temporal-mvp / no-frame-dup / no-hme / weightp / no-weightb / no-analyze-src-pics / deblock=0:0 / sao / no-sao-non-deblock / rd=4 / selective-sao=4 / no-early-skip / rskip / no-fast-intra / no-tskip-fast / no-cu-lossless / no-b-intra / no-splitrd-skip / rdpenalty=0 / psy-rd=2.00 / psy-rdoq=1.00 / no-rd-refine / no-lossless / cbqpoffs=0 / crqpoffs=0 / rc=crf / crf=22.0 / qcomp=0.60 / qpstep=4 / stats-write=0 / stats-read=0 / ipratio=1.40 / pbratio=1.30 / aq-mode=2 / aq-strength=1.00 / cutree / zone-count=0 / no-strict-cbr / qg-size=32 / no-rc-grain / qpmax=69 / qpmin=0 / no-const-vbv / sar=1 / overscan=0 / videoformat=5 / range=0 / colorprim=1 / transfer=1 / colormatrix=1 / chromaloc=0 / display-window=0 / cll=0,0 / min-luma=0 / max-luma=1023 / log2-max-poc-lsb=8 / vui-timing-info / vui-hrd-info / slices=1 / no-opt-qp-pps / no-opt-ref-list-length-pps / no-multi-pass-opt-rps / scenecut-bias=0.05 / no-opt-cu-delta-qp / no-aq-motion / no-sbrc / no-hdr10 / no-hdr10-opt / no-dhdr10-opt / no-idr-recovery-sei / analysis-reuse-level=0 / analysis-save-reuse-level=0 / analysis-load-reuse-level=0 / scale-factor=0 / refine-intra=0 / refine-inter=0 / refine-mv=1 / refine-ctu-distortion=0 / no-limit-sao / ctu-info=0 / no-lowpass-dct / refine-analysis-type=0 / copy-pic=1 / max-ausize-factor=1.0 / no-dynamic-refine / no-single-sei / no-hevc-aq / no-svt / no-field / qp-adaptation-range=1.00 / scenecut-aware-qp=0conformance-window-offsets / right=0 / bottom=0 / decoder-max-rate=0 / no-vbv-live-multi-pass / no-mcstf
Default                        : Yes
Forced                         : No
Color range                    : Limited
Color primaries                : BT.709
Transfer characteristics       : BT.709
Matrix coefficients            : BT.709

Audio
ID                             : 2
Format                         : PCM
Format settings                : Little / Signed
Codec ID                       : A_PCM/INT/LIT
Duration                       : 3 min 16 s
Bit rate mode                  : Constant
Bit rate                       : 1 411.2 kb/s
Channel(s)                     : 2 channels
Sampling rate                  : 44.1 kHz
Frame rate                     : 25.003 FPS (1764 SPF)
Bit depth                      : 16 bits
Stream size                    : 33.1 MiB (9%)
Language                       : English
Default                        : Yes
Forced                         : No

Text
ID                             : 3
Format                         : UTF-8
Codec ID                       : S_TEXT/UTF8
Codec ID/Info                  : UTF-8 Plain Text
Duration                       : 2 min 56 s
Bit rate                       : 55 b/s
Frame rate                     : 0.181 FPS
Count of elements              : 32
Stream size                    : 1.20 KiB (0%)
Title                          : Lyrics
Language                       : English
Default                        : No
Forced                         : No
</pre>
</div></div>
</div><br>
<div class="bbCodeBlock bbCodeVfcHH HiddenContent">
<div class="attribution type">Hidden Content:</div>
<blockquote>You must reply before you can see the hidden data contained here.</blockquote>
</div>
<div class="messageTextEndMarker">&nbsp;</div>
</blockquote>
</article>]]></description>
                <author><![CDATA[ADHDerby]]></author>
                </item>

                </channel></rss>